<?xml version="1.0" standalone="no"?><!DOCTYPE svg PUBLIC "-//W3C//DTD SVG 1.1//EN" "http://www.w3.org/Graphics/SVG/1.1/DTD/svg11.dtd"><svg t="1701542185482" class="icon" viewBox="0 0 1024 1024" version="1.1" xmlns="http://www.w3.org/2000/svg" p-id="7169" xmlns:xlink="http://www.w3.org/1999/xlink" width="200" height="200"><path d="M512 512m-512 0a512 512 0 1 0 1024 0 512 512 0 1 0-1024 0Z" fill="#7464FA" p-id="7170" data-spm-anchor-id="a313x.search_index.0.i9.60c93a81b9JuBb" class="selected"></path><path d="M705.422222 796.444444h-364.088889a45.511111 45.511111 0 0 1-45.511111-45.511111v-432.355555a45.511111 45.511111 0 0 1 45.511111-45.511111h364.088889a45.511111 45.511111 0 0 1 45.511111 45.511111v432.355555a45.511111 45.511111 0 0 1-45.511111 45.511111z m-274.500266-131.777422c-7.623111 0-13.835378 8.6016-13.835378 19.182934s6.212267 19.205689 13.835378 19.205688h138.558577c7.645867 0 13.858133-8.624356 13.858134-19.205688s-6.212267-19.182933-13.858134-19.182934z m0-115.165866c-7.623111 0-13.835378 8.6016-13.835378 19.182933s6.212267 19.182933 13.835378 19.182933h138.558577c7.645867 0 13.858133-8.6016 13.858134-19.182933s-6.212267-19.182933-13.858134-19.182933z m202.092088-135.350045a2.753422 2.753422 0 0 1 1.956978 0.728178l22.414222 21.731555a13.471289 13.471289 0 0 0 9.807645 3.936712 18.204444 18.204444 0 0 0 5.779911-0.978489 16.657067 16.657067 0 0 0 8.760889-13.835378v-127.431111a9.284267 9.284267 0 0 0-9.716622-9.875911h-78.939023a9.284267 9.284267 0 0 0-9.739377 9.875911v126.429866a15.382756 15.382756 0 0 0 8.760889 13.835378 12.288 12.288 0 0 0 5.848177 0.978489 19.569778 19.569778 0 0 0 10.717867-2.958222l22.414222-21.731556a2.753422 2.753422 0 0 1 1.934222-0.705422z" fill="#FFFFFF" p-id="7171"></path><path d="M705.422222 796.376178H341.333333a45.511111 45.511111 0 0 1-45.511111-45.511111V318.509511a45.511111 45.511111 0 0 1 45.511111-45.511111h364.088889a45.511111 45.511111 0 0 1 45.511111 45.511111v432.355556a45.511111 45.511111 0 0 1-45.511111 45.511111zM430.921956 664.598756c-7.623111 0-13.835378 8.6016-13.835378 19.182933s6.212267 19.205689 13.835378 19.205689h138.558577c7.645867 0 13.858133-8.624356 13.858134-19.205689s-6.212267-19.182933-13.858134-19.182933z m0-115.165867c-7.623111 0-13.835378 8.6016-13.835378 19.182933s6.212267 19.182933 13.835378 19.182934h138.558577c7.645867 0 13.858133-8.6016 13.858134-19.182934s-6.212267-19.182933-13.858134-19.182933zM633.014044 414.082844a2.753422 2.753422 0 0 1 1.956978 0.728178l22.414222 21.731556a13.471289 13.471289 0 0 0 9.807645 3.936711 18.204444 18.204444 0 0 0 5.779911-0.978489 16.657067 16.657067 0 0 0 8.760889-13.835378v-127.431111a9.284267 9.284267 0 0 0-9.716622-9.875911h-78.939023a9.284267 9.284267 0 0 0-9.739377 9.875911v126.429867a15.382756 15.382756 0 0 0 8.760889 13.835378 12.288 12.288 0 0 0 5.848177 0.978488 19.569778 19.569778 0 0 0 10.717867-2.958222l22.414222-21.731555a2.753422 2.753422 0 0 1 1.934222-0.705423z" fill="#FFFFFF" p-id="7172"></path></svg>