<?xml version="1.0" standalone="no"?><!DOCTYPE svg PUBLIC "-//W3C//DTD SVG 1.1//EN" "http://www.w3.org/Graphics/SVG/1.1/DTD/svg11.dtd"><svg t="1701767907209" class="icon" viewBox="0 0 1024 1024" version="1.1" xmlns="http://www.w3.org/2000/svg" p-id="16564" xmlns:xlink="http://www.w3.org/1999/xlink" width="200" height="200"><path d="M510.686679 1017.255919c-12.955735 32.833027-23.976984 30.348366-23.976984 30.348365h-111.79202c-9.974141 0-13.914104-9.707927-13.914105-17.144164 0-7.453985 5.200042-18.492981 14.854727-18.492981h11.624666C289.14361 870.004229 409.064023 742.381365 409.064023 742.381365h203.245312s119.938161 127.622864 21.598807 269.585774h11.624667c9.672432 0 14.854726 11.056744 14.854726 18.492981 0 7.436237-3.939963 17.144164-13.914104 17.144164h-111.792021s-11.003501 2.484662-23.959236-30.348365" fill="#F08C00" p-id="16565"></path><path d="M672.615619 903.742383s11.393948 20.356477 28.271899 16.487504c10.648549-2.449166 14.712746-12.778259 14.801483-23.852751 0.141981-18.315505-13.044473-84.922181-77.876391-159.976706H383.560747c-64.849665 75.054525-78.036119 141.661201-77.876391 159.976706 0.106485 11.074491 4.170682 21.403584 14.801484 23.852751 16.877951 3.868973 28.271899-16.487504 28.271899-16.487504" fill="#F08C00" p-id="16566"></path><path d="M434.975493 748.593019c-4.649867 5.129051-16.363271 17.605602-26.532635 34.980484-12.423308 21.208361-28.55586 55.922632-24.136712 96.813062 12.316822 113.903983 107.550348 119.671947 126.380533 119.671947 18.812437 0 114.063711-5.767964 126.362785-119.671947 4.436896-40.890429-11.713404-75.6047-24.136711-96.813062-10.151617-17.374883-21.865021-29.851433-26.514888-34.980484" fill="#FFFFFF" p-id="16567"></path><path d="M510.686679 1003.040105c-19.398107 0-116.779091-5.927692-129.326632-122.334084-3.443031-31.768172 4.791847-64.956151 24.491664-98.641062 9.796665-16.682727 20.782419-28.751083 26.05345-34.554543l0.834137-0.922874a2.981594 2.981594 0 0 1 4.436895 3.993206l-0.834136 0.940622c-5.146799 5.661479-15.884086 17.428126-25.343548 33.560678-19.043156 32.549066-26.994073 64.512461-23.710769 94.98506 12.032861 111.348331 104.888211 117.00981 123.398939 117.00981 18.492981 0 111.348331-5.661479 123.434434-117.00981 3.265555-30.525841-4.720857-62.471489-23.764012-94.98506a196.075289 196.075289 0 0 0-25.290305-33.507435l-0.887379-0.993865a2.981594 2.981594 0 0 1 4.436896-3.993206l0.869631 0.976117c5.28878 5.785712 16.29228 17.871815 26.017956 34.5013 19.699816 33.631668 27.952442 66.8019 24.527158 98.641062-12.583036 116.424139-109.946272 122.334084-129.344379 122.334084" fill="#562A28" p-id="16568"></path><path d="M737.518528 300.395577c38.38802 42.771673 61.282401 96.635585 61.282401 155.184859 0 12.512045-1.064855 24.775625-3.15907 36.77299-7.152276 41.529342 3.886721 85.117404 34.323824 113.26507 7.382994 6.850567 15.671115 13.186454 24.935353 18.617214-69.038095 74.841554-197.175639 125.297931-344.214357 125.297931-147.056466 0-275.176263-50.456376-344.232105-125.297931 9.281986-5.43076 17.570106-11.766647 24.9531-18.617214 30.454851-28.147665 41.4761-71.735727 34.323824-113.26507a215.952581 215.952581 0 0 1-3.159069-36.77299c0-58.478283 22.841138-112.3067 61.140421-155.025131l-0.283962-1.189088S256.754272 213.414676 292.426913 185.888176c35.690388-27.5265 109.236369 36.205068 109.236368 36.205068l0.44369 0.319457a324.070852 324.070852 0 0 1 108.579708-18.492981c38.370273 0 75.01903 6.566605 108.508718 18.457485l0.51468-0.283961s73.545981-63.731568 109.236368-36.205068c35.67264 27.508752 8.998024 113.478041 8.998024 113.478041l-0.425941 1.02936z" fill="#F08C00" p-id="16569"></path><path d="M510.686679 755.479081c-142.637318 0-276.22337-48.752608-348.59801-127.232417L157.048355 622.833651l6.38913-3.74474a136.993587 136.993587 0 0 0 23.905993-17.818572c27.59749-25.521023 39.754584-65.84353 32.513571-107.940796a220.673438 220.673438 0 0 1-3.265555-37.749107c0-58.28306 21.669798-113.282817 62.666713-159.000589a6.051926 6.051926 0 0 1 8.447849-0.461437c2.431419 2.2007 2.662137 5.963188 0.461437 8.412354-39.009186 43.499324-59.631876 95.730459-59.631877 151.049672 0 11.908628 1.011612 23.959236 3.070332 35.725883 7.950917 46.054976-5.572741 90.423932-36.151825 118.69583-6.211654 5.750217-12.778259 10.914763-19.628826 15.440397 71.27429 72.995806 198.684183 118.127907 334.861382 118.127907 136.177199 0 263.587091-45.132102 334.861382-118.145655a154.403965 154.403965 0 0 1-19.646574-15.422649c-30.561337-28.289646-44.067247-72.658602-36.11633-118.69583a212.083608 212.083608 0 0 0 3.052584-35.725883c0-55.390204-20.675933-107.692329-59.773857-151.209401a5.980935 5.980935 0 0 1 0.461438-8.412354 6.034178 6.034178 0 0 1 8.447849 0.461438c41.085653 45.753267 62.790946 100.78852 62.790946 159.160317 0 12.547541-1.082603 25.237062-3.23006 37.749107-7.241014 42.06177 4.898333 82.384277 32.478075 107.940796 7.471732 6.903809 15.511387 12.866997 23.923741 17.818572l6.353634 3.726992-5.004818 5.430761c-72.392388 78.479809-205.978439 127.232417-348.59801 127.232417" fill="#562A28" p-id="16570"></path><path d="M510.349475 954.766682a80.609519 80.609519 0 0 1-80.609519-80.449791 80.609519 80.609519 0 0 1 113.229575-73.581476 9.548199 9.548199 0 1 1-7.755693 17.463621 61.477625 61.477625 0 0 0-86.341988 56.117855 61.477625 61.477625 0 0 0 61.477625 61.353392 61.229159 61.229159 0 0 0 61.406634-58.904225 9.530452 9.530452 0 0 1 9.938646-9.157753c5.28878 0.195223 9.406219 4.649867 9.193248 9.920899a80.272314 80.272314 0 0 1-80.538528 77.237478" fill="#F08C00" p-id="16571"></path><path d="M591.633402 848.423169a10.240355 10.240355 0 1 1-20.48071 0 10.240355 10.240355 0 0 1 20.48071 0M506.267531 852.114666l-26.550383 9.938646a9.672432 9.672432 0 0 0-6.282644 9.051267v30.703317c0 3.194565 2.608895 5.803459 5.821207 5.80346h7.507227c3.194565 0 5.803459-2.591147 5.803459-5.80346v-29.301258c0-3.23006 2.005477-6.122916 5.040314-7.258761l10.027384-3.74474a11.695657 11.695657 0 0 1 8.163888 0l10.027384 3.74474c3.017089 1.135845 5.022566 4.028701 5.022565 7.258761v29.301258c0 3.194565 2.608895 5.803459 5.821207 5.80346h7.507228a5.803459 5.803459 0 0 0 5.803459-5.80346v-30.703317a9.672432 9.672432 0 0 0-6.282644-9.051267l-26.532636-9.938646a15.511387 15.511387 0 0 0-10.897015 0M486.762938 838.218309h-7.507227a5.803459 5.803459 0 0 0-5.821207 5.785712v11.038996c0 2.697633 2.697633 4.561129 5.235537 3.620507l11.393947-4.25942a3.851225 3.851225 0 0 0 2.502409-3.620507v-6.779576a5.803459 5.803459 0 0 0-5.803459-5.803459" fill="#F08C00" p-id="16572"></path><path d="M236.575271 368.031613s38.654234 21.350341 77.14874 19.877292c0 0-36.737495 36.080835-85.667579 10.542064l8.518839-30.419356zM222.075497 443.458837s26.727859 10.293598 71.079066 3.23006c0 0-32.81528 33.436445-71.079066 25.308053v-28.538113zM785.383757 368.031613s-38.955943 21.350341-77.73441 19.877292c0 0 37.003709 36.080835 86.306492 10.542064l-8.572082-30.419356zM800.007765 443.458837s-26.94083 10.293598-71.611495 3.23006c0 0 33.045998 33.436445 71.611495 25.308053v-28.538113z" fill="#562A28" p-id="16573"></path><path d="M727.047454 557.912995s-29.389996-28.822074-75.657943-12.955735c-52.639329 18.049291-140.294638 50.935561-140.702832 51.095289-0.408194-0.159728-88.045755-33.045998-140.702832-51.113036-46.267947-15.848591-75.657943 12.973483-75.657943 12.973482s-69.215571 67.653783 2.005477 119.902666c68.115221 49.994939 149.541128 71.558252 214.319803 71.575999h0.07099c64.778675-0.017748 146.186835-21.58106 214.337551-71.575999 71.2033-52.248882 1.987729-119.902666 1.987729-119.902666" fill="#FFFFFF" p-id="16574"></path><path d="M510.686679 752.355506a2.963846 2.963846 0 1 1 0-5.963187c72.552116 0 152.043537-26.532635 212.616035-70.990329 19.167389-14.02059 29.531977-30.454851 30.82755-48.841347 2.484662-35.08697-28.822074-66.216229-29.159277-66.535685-1.135845-1.118098-28.715588-27.349024-72.569864-12.245832-52.124649 17.871815-139.779958 50.758085-140.667337 51.077541a3.017089 3.017089 0 0 1-3.851225-1.739263 2.981594 2.981594 0 0 1 1.757011-3.833477c0.887379-0.337204 88.631426-33.241222 140.809317-51.148532 47.49253-16.310028 78.391071 13.346182 78.728275 13.665638 1.348816 1.313321 33.578426 33.294464 30.880793 71.13231-1.419807 20.232244-12.600783 38.157302-33.187979 53.278241-61.601858 45.167597-142.388852 72.143922-216.183299 72.143922" fill="#562A28" p-id="16575"></path><path d="M510.686679 752.355506c-73.794447 0-154.581441-26.976325-216.165552-72.143922-20.622691-15.12094-31.803667-33.063746-33.223474-53.278241-2.679885-37.837845 29.549724-69.818989 30.880793-71.150058 0.354952-0.301709 31.235745-29.993414 78.746023-13.64789 52.177892 17.925058 139.921938 50.811328 140.809317 51.148532 1.54404 0.58567 2.324933 2.307186 1.757011 3.833477a3.052584 3.052584 0 0 1-3.851225 1.739263c-0.887379-0.319456-88.560435-33.205726-140.667337-51.095289-43.907518-15.085445-71.434019 11.145482-72.587612 12.26358-0.319456 0.319456-31.643939 31.448716-29.159277 66.517938 1.348816 18.404243 11.713404 34.820756 30.845298 48.859094 60.572498 44.457694 140.063919 70.990329 212.616035 70.990329a2.963846 2.963846 0 1 1 0 5.963187M192.188568 608.138653s24.456168 9.636937 44.067247 13.523658c0 0-5.980935 6.921557-34.607786 10.542064 0 0 13.008978 18.120281 61.300149 26.958577 0 0-16.274533 8.376859-30.117647 9.477209-13.843114 1.064855-56.792263-34.022115-56.792263-34.022115L169.471663 624.537419l0.443689-6.01643 4.720857-3.194565 17.534611-7.187771zM829.18479 608.138653s-24.456168 9.636937-44.067247 13.523658c0 0 5.980935 6.921557 34.607785 10.542064 0 0-13.008978 18.120281-61.300149 26.958577 0 0 16.274533 8.376859 30.117647 9.477209 13.843114 1.064855 56.792263-34.022115 56.792264-34.022115l6.548857-10.080627-0.443689-6.01643-4.720857-3.194565-17.534611-7.187771zM402.142466 228.358141a5.94544 5.94544 0 0 1-2.005477-11.553676c70.280426-24.988596 150.925439-24.970848 221.081632-0.017748a5.927692 5.927692 0 0 1 3.602759 7.595965 5.980935 5.980935 0 0 1-7.613712 3.602759c-67.511803-23.994731-145.352699-24.047974-213.041978 0.017748a6.353634 6.353634 0 0 1-2.023224 0.354952M663.830566 616.959201a3.567264 3.567264 0 0 1-2.520157-1.047107l-9.849908-9.832161a3.549516 3.549516 0 1 1 5.022566-5.022565l9.867656 9.83216a3.549516 3.549516 0 0 1-2.520157 6.069673M644.042012 614.208326a3.549516 3.549516 0 0 1-2.520157-1.02936l-6.229401-6.211653a3.549516 3.549516 0 1 1 5.040313-5.022566l6.211654 6.211654a3.549516 3.549516 0 0 1-2.502409 6.051925" fill="#562A28" p-id="16576"></path><path d="M383.560747 616.959201a3.567264 3.567264 0 0 1-2.520156-1.047107l-9.849908-9.832161a3.549516 3.549516 0 0 1 5.022565-5.022565l9.867656 9.83216a3.549516 3.549516 0 0 1-2.520157 6.069673M363.772193 614.208326a3.567264 3.567264 0 0 1-2.520157-1.02936l-6.211653-6.211653a3.549516 3.549516 0 0 1 0-5.022566 3.549516 3.549516 0 0 1 5.022565 0l6.211654 6.211654a3.549516 3.549516 0 0 1-2.502409 6.051925M510.686679 648.53215a2.963846 2.963846 0 0 1-2.981594-2.981594v-59.756109c0-1.650525 1.331069-2.981594 2.981594-2.981594 1.650525 0 2.981594 1.331069 2.981594 2.981594v59.756109a2.963846 2.963846 0 0 1-2.981594 2.981594M416.695483 355.484072c29.14153-8.234878 61.655101-12.600783 93.973448-12.600783 32.353842 0 64.867413 4.365905 94.026691 12.600783a13.843114 13.843114 0 0 0 16.948941-9.974141 14.304551 14.304551 0 0 0-9.672432-17.445873 364.588582 364.588582 0 0 0-73.84769-12.476551c-3.443031-0.230719-7.808936-1.047107-10.914763-5.271032a14.872474 14.872474 0 0 1-2.679885-9.281985c-0.035495-0.372699 0.035495-5.643731 3.052584-8.785053 3.283303-3.354293 6.495615-3.691497 10.435579-3.318798 13.665638 1.348816 25.645256 3.496274 36.524524 6.53111a13.310687 13.310687 0 0 0 10.488821-1.277826 14.109328 14.109328 0 0 0 6.46012-8.696315 14.286804 14.286804 0 0 0-9.672432-17.445873 239.734341 239.734341 0 0 0-44.546432-7.737946c-3.726992-0.319456-7.613713-1.10035-10.488821-4.649867-2.697633-3.318798-2.307186-8.873791-2.253943-9.477209 0-0.354952 0.088738-5.235537 3.017089-8.483344 2.307186-2.608895 5.909945-3.851225 9.991889-3.460779 23.728517 1.703768 46.32119 5.537246 67.174599 11.393948 1.135845 0.354952 2.360428 0.532427 3.620506 0.532428 6.211654 0 11.677909-4.312662 13.310687-10.488821a14.499775 14.499775 0 0 0-1.348816-10.826026 13.665638 13.665638 0 0 0-8.341364-6.637595c-31.413221-8.856044-66.4292-13.559153-101.249957-13.576901-34.856252 0.017748-69.872231 4.720857-101.285451 13.576901a13.665638 13.665638 0 0 0-8.341364 6.637595 14.499775 14.499775 0 0 0-1.348816 10.826026 13.843114 13.843114 0 0 0 13.310686 10.488821c1.277826 0 2.466914-0.177476 3.549517-0.496933a338.623869 338.623869 0 0 1 67.245589-11.429443 11.393948 11.393948 0 0 1 9.991889 3.460779c2.946099 3.247808 3.017089 8.128393 3.017089 8.696315 0.07099 0.408194 0.44369 5.94544-2.253943 9.264238-2.875108 3.549516-6.744081 4.33041-10.471074 4.649867-16.682727 1.455302-31.235745 3.975458-44.581926 7.737946a14.286804 14.286804 0 0 0-9.636937 17.46362c0.958369 3.726992 3.265555 6.797324 6.442372 8.678568 3.15907 1.863496 6.886062 2.307186 10.488821 1.277826a208.569586 208.569586 0 0 1 36.506777-6.53111c4.028701-0.479185 7.187771-0.035495 10.400083 3.318798 3.070332 3.141322 3.141322 8.412354 3.123574 8.998024 0.017748 0 0.354952 4.91608-2.679885 9.051267-3.141322 4.25942-7.48948 5.058061-10.93251 5.288779-25.964713 1.774758-50.846823 5.980935-73.883185 12.476551a13.630143 13.630143 0 0 0-8.323616 6.637595 14.411037 14.411037 0 0 0-1.313321 10.826026 13.843114 13.843114 0 0 0 16.948941 9.938646M696.521613 926.690007c-17.676592 0-28.609103-19.131894-29.106035-20.019273a5.963188 5.963188 0 0 1 10.41783-5.821207c0.088738 0.141981 9.317481 16.505251 21.723041 13.559153 8.696315-2.005477 10.116122-12.192589 10.151617-18.102534 0.177476-18.599466-13.239696-82.863461-76.421089-156.036743a5.963188 5.963188 0 1 1 9.051267-7.773441c65.577316 75.959652 79.491421 144.074873 79.313945 163.916669-0.159728 15.795348-7.400742 26.852092-19.433603 29.602967-1.952234 0.479185-3.886721 0.674408-5.696973 0.674409M487.419599 1053.638462a9.335228 9.335228 0 0 1-2.023225-0.195223l-110.478699 0.124233c-13.044473 0-19.877292-11.624666-19.877292-23.107352 0-10.258103 7.241014-24.456168 20.817914-24.456168h0.51468c-88.560435-140.525356 27.171548-266.408957 28.360636-267.686783a5.980935 5.980935 0 0 1 8.714063 8.128392c-4.738604 5.075809-115.448022 125.883601-21.06638 262.13179l6.46012 9.335228h-22.983119c-5.821207 0-8.873791 8.163888-8.873791 12.547541 0 0.106485 0.088738 11.198724 7.933169 11.198724H486.727443c0.709903 0 8.572082-1.68602 18.404243-26.585878a5.963188 5.963188 0 0 1 11.092239 4.383653c-11.89088 30.135395-23.480051 34.181843-28.804326 34.181843" fill="#562A28" p-id="16577"></path><path d="M533.297099 1053.744948c-4.33041 0-16.043814-3.762487-28.112171-34.288329a5.94544 5.94544 0 1 1 11.092239-4.365905c9.938646 25.148324 17.871815 26.621373 17.978301 26.621373l112.217963-0.053243c7.862179 0 7.950917-11.092239 7.950916-11.198724 0-4.383653-3.052584-12.547541-8.873791-12.547541H622.567437l6.46012-9.352976c94.39939-136.230441-16.327776-257.038234-21.06638-262.114042a5.963188 5.963188 0 0 1 8.696315-8.128392c1.206836 1.277826 116.956567 127.161427 28.396132 267.686783h0.496932c13.594648 0 20.800166 14.198066 20.800167 24.456168 0 11.482686-6.815072 23.1251-19.877292 23.1251H534.716905a5.217789 5.217789 0 0 1-1.419806 0.159728M324.851745 926.690007c-1.810253 0-3.726992-0.195223-5.679226-0.656661-12.068356-2.768623-19.309369-13.843114-19.45135-29.638462-0.177476-19.824049 13.736629-87.957018 79.331692-163.898922a5.963188 5.963188 0 0 1 9.051267 7.773441c-63.216888 73.155534-76.616313 137.437277-76.456584 156.05449 0.053243 5.892197 1.455302 16.07931 10.169365 18.102534 12.245832 2.591147 21.65205-13.399425 21.740788-13.5769a5.856702 5.856702 0 0 1 8.110645-2.289438c2.875108 1.597282 3.904468 5.235537 2.289438 8.110645-0.496932 0.905127-11.447191 20.019273-29.106035 20.019273" fill="#562A28" p-id="16578"></path><path d="M510.686679 704.54352c-17.002184 0-30.809803-9.636937-30.809803-21.474575v-37.553884h61.584111v37.553884c0 11.837637-13.807619 21.474575-30.774308 21.474575" fill="#C7020A" p-id="16579"></path><path d="M544.460328 642.533467h-67.565046v40.517731c0 13.736629 15.12094 24.456168 33.773649 24.456168 18.652709 0 33.791397-11.003501 33.791397-24.456168v-40.517731z m-5.980935 5.963188v34.554543c0 10.027384-12.725016 18.492981-27.810462 18.49298-15.333911 0-27.810461-8.288121-27.810461-18.49298V648.496655h55.620923z" fill="#910000" p-id="16580"></path><path d="M510.686679 687.257375a5.980935 5.980935 0 0 1-5.963188-5.963188v-32.531318a5.963188 5.963188 0 0 1 11.926376 0v32.531318c0 3.283303-2.662137 5.963188-5.963188 5.963188" fill="#910000" p-id="16581"></path><path d="M510.686679 650.715103c-33.862387 0-62.294014-12.600783-69.14458-30.632327a5.909945 5.909945 0 0 1 3.44303-7.684703 5.856702 5.856702 0 0 1 7.702451 3.443031c4.223925 11.145482 26.000208 22.965371 57.999099 22.965371 31.963396 0 53.739679-11.81989 57.981351-22.965371a5.909945 5.909945 0 0 1 7.702451-3.443031c3.070332 1.17134 4.614371 4.614371 3.443031 7.684703-6.868314 18.031544-35.282193 30.632327-69.126833 30.632327M345.527679 437.797359c-2.484662-1.987729 0.834136-9.423966 2.662137-12.068356 8.465597-12.032861 29.780443-25.769489 52.089154-11.180977 2.679885 1.721515 5.377517 6.477868 2.892856 11.251967-1.490797 2.839613-6.442372 4.170682-9.406219 3.141322-24.36743-8.518839-36.293806 2.378176-38.547748 4.7741-1.331069 1.419807-7.010295 6.247149-9.707928 4.081944M651.655725 437.797359c2.484662-1.987729-0.851884-9.423966-2.697633-12.068356-8.430102-12.032861-29.762695-25.769489-52.071406-11.180977a8.856044 8.856044 0 0 0-2.892856 11.251967c1.490797 2.839613 6.442372 4.170682 9.406219 3.141322 24.36743-8.518839 36.293806 2.378176 38.547748 4.7741 1.331069 1.419807 7.010295 6.247149 9.707928 4.081944M652.525356 499.59444c0 21.368089-14.304551 38.689729-31.945648 38.689729s-31.945648-17.32164-31.945648-38.689729c0-21.385837 14.304551-38.707477 31.945648-38.707477s31.945648 17.32164 31.945648 38.689729" fill="#562A28" p-id="16582"></path><path d="M620.579708 460.886963s28.467122-0.816389 38.849458 15.990572c0 0-13.186454-7.879927-28.076675-8.00416l-10.772783-7.986412zM361.837707 524.47655a8.927034 8.927034 0 0 1-7.862179-13.221948c0.496932-0.887379 12.210337-21.723041 37.127942-23.107353 26.674616-1.969982 37.837845 18.244515 38.334777 19.078651 2.431419 4.312662 0.887379 9.76117-3.389788 12.157094a8.909286 8.909286 0 0 1-12.192589-3.37204c-0.212971-0.354952-6.566605-10.630802-21.740788-10.045132-14.872474 0.834136-22.361954 13.736629-22.432944 13.860862a8.962529 8.962529 0 0 1-7.844431 4.649866" fill="#562A28" p-id="16583"></path><path d="M289.303338 280.323061s-50.403134-76.740546 11.447191-108.703941c66.695414-34.465805 110.567437 48.504142 110.567437 48.504143" fill="#F08C00" p-id="16584"></path><path d="M740.21616 280.181081s50.403134-76.740546-11.447191-108.703941c-66.695414-34.465805-110.567437 48.52189-110.567437 48.521889" fill="#F08C00" p-id="16585"></path></svg>