<?xml version="1.0" standalone="no"?><!DOCTYPE svg PUBLIC "-//W3C//DTD SVG 1.1//EN" "http://www.w3.org/Graphics/SVG/1.1/DTD/svg11.dtd"><svg t="1703750562006" class="icon" viewBox="0 0 1524 1024" version="1.1" xmlns="http://www.w3.org/2000/svg" p-id="10556" data-spm-anchor-id="a313x.search_index.0.i21.52393a81PvNLjd" xmlns:xlink="http://www.w3.org/1999/xlink" width="297.65625" height="200"><path d="M1293.326027 1024h-19.237573V587.547554L829.620352 1015.182779l-13.225831-14.027397 476.931506-458.896282z" fill="#F2F2F2" p-id="10557"></path><path d="M1312.563601 1024h-19.237574V542.2591l-476.931506 458.896282-13.225832-13.626615L1312.563601 496.970646z" fill="#7464FA" p-id="10558" data-spm-anchor-id="a313x.search_index.0.i25.52393a81PvNLjd" class="selected"></path><path d="M1331.801174 1024h-19.237573V496.970646L803.168689 987.528767l-13.626615-14.027397 542.2591-521.418395z" fill="#F2F2F2" p-id="10559"></path><path d="M1351.038748 1024h-19.237574V452.082975L789.542074 973.50137l-13.225831-14.027397 574.722505-552.679452z" fill="#7464FA" p-id="10560" data-spm-anchor-id="a313x.search_index.0.i24.52393a81PvNLjd" class="selected"></path><path d="M1370.276321 1024h-19.237573v-617.205479L776.316243 959.473973l-13.225832-13.626615L1370.276321 361.506067z" fill="#F2F2F2" p-id="10561"></path><path d="M1389.513894 1024h-19.237573V361.506067L763.090411 945.847358l-13.626615-14.027397L1389.513894 316.217613z" fill="#7464FA" p-id="10562" data-spm-anchor-id="a313x.search_index.0.i23.52393a81PvNLjd" class="selected"></path><path d="M1408.751468 1024h-19.237574V316.217613L749.463796 931.819961l-13.225831-13.626615L1408.751468 271.329941z" fill="#F2F2F2" p-id="10563"></path><path d="M1427.989041 1024h-19.237573V271.329941L736.237965 918.193346l-13.225832-14.027397L1427.989041 226.041487z" fill="#7464FA" p-id="10564" data-spm-anchor-id="a313x.search_index.0.i8.52393a81PvNLjd" class="selected"></path><path d="M1447.226614 1024h-19.237573V226.041487L723.012133 904.165949l-13.225832-14.027397 737.440313-709.385519z" fill="#F2F2F2" p-id="10565" data-spm-anchor-id="a313x.search_index.0.i7.52393a81PvNLjd" class=""></path><path d="M1466.464188 1024h-19.237574V180.753033l-737.440313 709.385519-13.626614-13.626615L1466.464188 135.464579z" fill="#7464FA" p-id="10566" data-spm-anchor-id="a313x.search_index.0.i9.52393a81PvNLjd" class="selected"></path><path d="M1485.701761 1024h-19.237573V135.464579L696.159687 876.511937l-13.225832-14.027397L1485.701761 90.576908z" fill="#F2F2F2" p-id="10567" data-spm-anchor-id="a313x.search_index.0.i10.52393a81PvNLjd" class=""></path><path d="M1524.176908 1024h-19.237573V45.288454L669.708023 848.857926l-13.225831-14.027398L1524.176908 0z" fill="#F2F2F2" p-id="10568" data-spm-anchor-id="a313x.search_index.0.i20.52393a81PvNLjd" class=""></path><path d="M1504.939335 1024h-19.237574V90.576908L682.933855 862.48454l-13.225832-13.626614L1504.939335 45.288454z" fill="#7464FA" p-id="10569" data-spm-anchor-id="a313x.search_index.0.i22.52393a81PvNLjd" class="selected"></path><path d="M637.244618 1024h-19.237573V587.547554L173.538943 1015.182779l-13.626614-14.027397L637.244618 542.2591z" fill="#F2F2F2" p-id="10570"></path><path d="M656.482192 1024H637.244618V542.2591L159.912329 1001.155382l-13.225832-13.626615L656.482192 496.970646z" fill="#7464FA" p-id="10571" data-spm-anchor-id="a313x.search_index.0.i19.52393a81PvNLjd" class="selected"></path><path d="M675.719765 1024h-19.237573V496.970646L146.686497 987.528767l-13.225832-14.027397 542.2591-521.418395z" fill="#F2F2F2" p-id="10572"></path><path d="M694.957339 1024h-19.237574V452.082975L133.460665 973.50137l-13.626614-14.027397 575.123288-552.679452z" fill="#7464FA" p-id="10573" data-spm-anchor-id="a313x.search_index.0.i18.52393a81PvNLjd" class="selected"></path><path d="M714.194912 1024h-19.237573v-617.205479L119.834051 959.473973l-13.225832-13.626615L714.194912 361.506067z" fill="#F2F2F2" p-id="10574"></path><path d="M733.432485 1024h-19.237573V361.506067L106.608219 945.847358l-13.225832-14.027397L733.432485 316.217613z" fill="#7464FA" p-id="10575" data-spm-anchor-id="a313x.search_index.0.i17.52393a81PvNLjd" class="selected"></path><path d="M752.670059 1024H733.432485V316.217613L93.382387 931.819961l-13.225831-13.626615L752.670059 271.329941z" fill="#F2F2F2" p-id="10576"></path><path d="M771.907632 1024h-19.237573V271.329941L80.156556 918.193346l-13.626615-14.027397 705.377691-678.124462z" fill="#7464FA" p-id="10577" data-spm-anchor-id="a313x.search_index.0.i16.52393a81PvNLjd" class="selected"></path><path d="M791.145205 1024h-19.237573V226.041487l-705.377691 678.124462-13.225831-14.027397 737.841095-709.385519z" fill="#F2F2F2" p-id="10578" data-spm-anchor-id="a313x.search_index.0.i13.52393a81PvNLjd" class=""></path><path d="M810.382779 1024h-19.237574V180.753033l-737.841095 709.385519-13.225832-13.626615L810.382779 135.464579z" fill="#7464FA" p-id="10579" data-spm-anchor-id="a313x.search_index.0.i15.52393a81PvNLjd" class="selected"></path><path d="M829.620352 1024h-19.237573V135.464579L40.078278 876.511937l-13.225832-14.027397L829.620352 90.576908z" fill="#F2F2F2" p-id="10580"></path><path d="M868.095499 1024h-19.237573V45.288454L13.225832 848.857926 0 834.830528 868.095499 0z" fill="#F2F2F2" p-id="10581"></path><path d="M848.857926 1024H829.620352V90.576908L26.852446 862.48454l-13.626614-13.626614L848.857926 45.288454z" fill="#7464FA" p-id="10582" data-spm-anchor-id="a313x.search_index.0.i14.52393a81PvNLjd" class="selected"></path></svg>