<?xml version="1.0" standalone="no"?><!DOCTYPE svg PUBLIC "-//W3C//DTD SVG 1.1//EN" "http://www.w3.org/Graphics/SVG/1.1/DTD/svg11.dtd"><svg t="1701542287236" class="icon" viewBox="0 0 1024 1024" version="1.1" xmlns="http://www.w3.org/2000/svg" p-id="9285" xmlns:xlink="http://www.w3.org/1999/xlink" width="200" height="200"><path d="M415.623529 602.352941h126.494118l36.141177-222.870588H451.764706z" p-id="9286" data-spm-anchor-id="a313x.search_index.0.i19.60c93a81b9JuBb" class="selected" fill="#7464FA"></path><path d="M993.882353 505.976471c0-265.035294-216.847059-481.882353-481.882353-481.882353S30.117647 240.941176 30.117647 505.976471s216.847059 481.882353 481.882353 481.882353c54.211765 0 108.423529-12.047059 162.635294-30.117648h156.611765c18.070588 0 30.117647-12.047059 30.117647-30.117647v-90.352941c84.329412-84.329412 132.517647-204.8 132.517647-331.294117z m-301.176471-126.494118h-60.235294L602.352941 602.352941H674.635294c12.047059 0 18.070588 12.047059 18.070588 24.094118s-12.047059 24.094118-30.117647 24.094117H590.305882l-18.070588 120.470589c0 18.070588-18.070588 30.117647-30.117647 30.117647h-6.023529c-12.047059 0-24.094118-12.047059-18.070589-30.117647l18.070589-114.447059H409.6L391.529412 771.011765c0 18.070588-18.070588 30.117647-30.117647 30.117647h-6.02353c-12.047059 0-24.094118-12.047059-18.070588-30.117647l18.070588-114.447059h-60.235294-6.023529c-12.047059 0-18.070588-12.047059-18.070588-24.094118s12.047059-24.094118 30.117647-24.094117h60.235294l36.141176-222.870589H331.294118h-6.02353c-12.047059 0-18.070588-12.047059-18.070588-24.094117s12.047059-24.094118 30.117647-24.094118h66.258824l18.070588-120.470588c0-18.070588 18.070588-30.117647 30.117647-30.117647h6.023529c12.047059 0 24.094118 12.047059 18.070589 24.094117l-18.070589 120.470589h126.494118l18.070588-120.470589c0-18.070588 18.070588-30.117647 30.117647-30.117647h6.02353c12.047059 0 24.094118 12.047059 18.070588 24.094118l-18.070588 120.470588h66.258823c12.047059 0 18.070588 12.047059 18.070588 24.094118 0 24.094118-18.070588 30.117647-30.117647 30.117647z" p-id="9287" data-spm-anchor-id="a313x.search_index.0.i18.60c93a81b9JuBb" class="selected" fill="#7464FA"></path></svg>