<?xml version="1.0" standalone="no"?><!DOCTYPE svg PUBLIC "-//W3C//DTD SVG 1.1//EN" "http://www.w3.org/Graphics/SVG/1.1/DTD/svg11.dtd"><svg t="1701542801615" class="icon" viewBox="0 0 1024 1024" version="1.1" xmlns="http://www.w3.org/2000/svg" p-id="19779" xmlns:xlink="http://www.w3.org/1999/xlink" width="200" height="200"><path d="M743.6 725.8L594 466.5l-9.1-15.7h235.4c4.1 20.4 6.3 41.2 6.3 62.8 0 82.1-31.5 156.2-83 212.2zM512.3 827.9c-23.6 0-46.2-2.8-68.2-7.5l122.6-212.5 29.2-50.3 115 199.5c-54.1 44-123.2 70.8-198.6 70.8z m-299.8-220h303.6L401 807.2c-89.6-34-159.6-107.5-188.5-199.3zM198 513.6c0-82.1 31.8-156.2 83-212.2l122.5 212.2 36.2 62.8H204.3c-4.1-20.4-6.3-41.1-6.3-62.8z m314.3-314.3c23.6 0 46.2 2.8 68.2 7.5L430.6 466.5l-1.9 3.1L313.6 270c54.1-44 123.3-70.7 198.7-70.7z m299.8 220H508.5l115-199.3c89.7 34 159.7 107.5 188.6 199.3zM512.3 65.5c-247.5 0-448.1 200.6-448.1 448.1 0 247.5 200.6 448.1 448.1 448.1s448.1-200.6 448.1-448.1c0-247.5-200.7-448.1-448.1-448.1z" fill="#7464FA" p-id="19780" data-spm-anchor-id="a313x.search_index.0.i24.60c93a81b9JuBb" class="selected"></path></svg>