<?xml version="1.0" standalone="no"?><!DOCTYPE svg PUBLIC "-//W3C//DTD SVG 1.1//EN" "http://www.w3.org/Graphics/SVG/1.1/DTD/svg11.dtd"><svg t="1701542882879" class="icon" viewBox="0 0 1024 1024" version="1.1" xmlns="http://www.w3.org/2000/svg" p-id="24705" xmlns:xlink="http://www.w3.org/1999/xlink" width="200" height="200"><path d="M512 0C230.4 0 0 230.4 0 512s230.4 512 512 512 512-230.4 512-512S793.6 0 512 0z m215.771429 373.028571l25.6 25.6c18.285714 25.6 0 47.542857 0 47.542858L647.314286 548.571429c-18.285714 25.6-47.542857 10.971429-47.542857 10.971428l-29.257143-29.257143c-21.942857-29.257143 7.314286-47.542857 7.314285-47.542857l106.057143-102.4c14.628571-29.257143 43.885714-7.314286 43.885715-7.314286z m-373.028572-109.714285l106.057143-102.4c21.942857-21.942857 43.885714-7.314286 43.885714-7.314286l29.257143 29.257143c14.628571 21.942857 0 43.885714 0 43.885714L427.885714 329.142857c-25.6 21.942857-47.542857 10.971429-47.542857 10.971429l-32.914286-29.257143c-25.6-25.6 7.314286-47.542857 7.314286-47.542857z m-73.142857 442.514285l-36.571429 36.571429c-21.942857 18.285714-36.571429 7.314286-36.571428 7.314286l-47.542857-47.542857c-25.6-18.285714 0-47.542857 0-47.542858l29.257143-25.6c14.628571-18.285714 36.571429 0 36.571428 0l234.057143-237.714285-29.257143-29.257143 128-120.685714 117.028572 109.714285-124.342858 120.685715-36.571428-25.6-237.714286 230.4c7.314286 10.971429 3.657143 29.257143 3.657143 29.257142zM768 808.228571h-288.914286c-32.914286 0-40.228571-40.228571-40.228571-40.228571 0-40.228571 40.228571-40.228571 40.228571-40.228571 32.914286 3.657143 21.942857 0 21.942857 0 0-29.257143 47.542857-47.542857 47.542858-47.542858h153.6c14.628571 0 47.542857 47.542857 47.542857 47.542858 0 7.314286 21.942857 0 21.942857 0 36.571429 0 40.228571 40.228571 40.228571 40.228571-10.971429 43.885714-43.885714 40.228571-43.885714 40.228571z" fill="#7464FA" p-id="24706" data-spm-anchor-id="a313x.search_index.0.i28.60c93a81b9JuBb" class="selected"></path></svg>