<?xml version="1.0" standalone="no"?><!DOCTYPE svg PUBLIC "-//W3C//DTD SVG 1.1//EN" "http://www.w3.org/Graphics/SVG/1.1/DTD/svg11.dtd"><svg t="1701542847830" class="icon" viewBox="0 0 1024 1024" version="1.1" xmlns="http://www.w3.org/2000/svg" p-id="22629" xmlns:xlink="http://www.w3.org/1999/xlink" width="200" height="200"><path d="M512 56.888889a455.111111 455.111111 0 1 1 0 910.222222A455.111111 455.111111 0 0 1 512 56.888889z m3.413333 204.003555a47.616 47.616 0 0 0-47.331555 39.253334H347.818667a24.007111 24.007111 0 0 0-24.405334 23.552c0 4.778667 1.479111 9.272889 4.096 12.970666L260.778667 519.054222a23.779556 23.779556 0 0 0-1.422223 8.078222c-0.113778 51.939556 42.894222 94.037333 95.971556 94.037334 53.020444 0 96.085333-42.097778 96.085333-94.037334h-0.113777a22.471111 22.471111 0 0 0-1.479112-8.078222L386.958222 347.136h104.277334v344.576h-118.897778c-27.079111 0-49.095111 21.048889-49.095111 47.047111h384c0-25.941333-21.959111-47.047111-49.095111-47.047111H539.192889V347.136h104.334222l-62.862222 171.918222a23.836444 23.836444 0 0 0-1.422222 8.135111c-0.113778 51.939556 42.894222 94.037333 95.971555 94.037334 53.020444 0 96.028444-42.097778 96.028445-94.037334a25.429333 25.429333 0 0 0-1.536-8.078222l-66.673778-182.215111a22.755556 22.755556 0 0 0 4.266667-13.198222 23.950222 23.950222 0 0 0-24.462223-23.495111H562.744889a47.729778 47.729778 0 0 0-47.331556-39.253334z m159.800889 141.767112l45.511111 124.529777h-91.022222l45.511111-124.586666z m-319.943111 0l45.511111 124.529777h-91.022222l45.511111-124.586666z" fill="#7464FA" p-id="22630"></path></svg>